# Blender 3.5.0
# www.blender.org
mtllib Fans2.mtl
o AFan2
v -0.777320 1.646828 -3.310434
v -0.777320 1.649771 -3.061048
v -0.777320 1.675013 -3.310767
v -0.777320 1.677956 -3.061381
v -0.546768 1.646828 -3.310434
v -0.546768 1.649771 -3.061048
v -0.546768 1.675013 -3.310767
v -0.546768 1.677956 -3.061381
v -0.786331 1.646638 -3.062026
v -0.786331 1.654595 -2.387815
v -0.786331 1.681066 -3.062432
v -0.786331 1.689022 -2.388222
v -0.537511 1.646638 -3.062026
v -0.537511 1.654595 -2.387815
v -0.537511 1.681066 -3.062432
v -0.537511 1.689022 -2.388222
v -0.786331 1.639747 -3.983202
v -0.786331 1.639747 -3.308945
v -0.786331 1.674177 -3.983202
v -0.786331 1.674177 -3.308945
v -0.537511 1.639747 -3.983202
v -0.537511 1.639747 -3.308945
v -0.537511 1.674177 -3.983202
v -0.537511 1.674177 -3.308945
v -1.459198 1.646676 -3.058853
v -0.784943 1.646656 -3.060535
v -1.459198 1.681103 -3.059259
v -0.784943 1.681083 -3.060941
v -1.459819 1.643739 -3.307654
v -0.785564 1.643720 -3.309337
v -1.459819 1.678167 -3.308061
v -0.785564 1.678147 -3.309743
v 0.133768 1.643682 -3.312492
v -0.540485 1.643710 -3.310111
v 0.133768 1.678110 -3.312898
v -0.540485 1.678138 -3.310517
v 0.134647 1.646618 -3.063691
v -0.539606 1.646647 -3.061310
v 0.134647 1.681046 -3.064097
v -0.539606 1.681074 -3.061716
vn -1.0000 -0.0000 -0.0000
vn -0.0000 0.9999 -0.0118
vn 1.0000 -0.0000 -0.0000
vn -0.0000 -0.9999 0.0118
vn -0.0000 -0.0118 -0.9999
vn -0.0000 0.0118 0.9999
vn -0.0000 1.0000 -0.0000
vn -0.0000 -1.0000 -0.0000
vn -0.0000 -0.0000 -1.0000
vn -0.0000 -0.0000 1.0000
vn 0.0025 0.0118 0.9999
vn -0.0025 -0.0118 -0.9999
vn -1.0000 -0.0000 0.0025
vn 1.0000 -0.0000 -0.0025
vn -0.0035 -0.0118 -0.9999
vn 0.0035 0.0118 0.9999
vn 1.0000 -0.0000 -0.0035
vn -1.0000 -0.0000 0.0035
vt 0.375000 0.000000
vt 0.375000 1.000000
vt 0.125000 0.750000
vt 0.625000 0.000000
vt 0.625000 1.000000
vt 0.875000 0.750000
vt 0.125000 0.500000
vt 0.375000 0.250000
vt 0.625000 0.250000
vt 0.875000 0.500000
vt 0.375000 0.750000
vt 0.625000 0.750000
vt 0.375000 0.500000
vt 0.625000 0.500000
vt 0.375000 0.000000
vt 0.375000 1.000000
vt 0.125000 0.750000
vt 0.625000 0.000000
vt 0.625000 1.000000
vt 0.875000 0.750000
vt 0.125000 0.500000
vt 0.375000 0.250000
vt 0.625000 0.250000
vt 0.875000 0.500000
vt 0.375000 0.750000
vt 0.625000 0.750000
vt 0.375000 0.500000
vt 0.625000 0.500000
vt 0.375000 0.000000
vt 0.375000 1.000000
vt 0.125000 0.750000
vt 0.625000 0.000000
vt 0.625000 1.000000
vt 0.875000 0.750000
vt 0.375000 0.250000
vt 0.125000 0.500000
vt 0.625000 0.250000
vt 0.875000 0.500000
vt 0.375000 0.750000
vt 0.625000 0.750000
vt 0.375000 0.500000
vt 0.625000 0.500000
vt 0.375000 0.000000
vt 0.375000 1.000000
vt 0.125000 0.750000
vt 0.625000 0.000000
vt 0.625000 1.000000
vt 0.875000 0.750000
vt 0.125000 0.500000
vt 0.375000 0.250000
vt 0.625000 0.250000
vt 0.875000 0.500000
vt 0.375000 0.750000
vt 0.625000 0.750000
vt 0.375000 0.500000
vt 0.625000 0.500000
vt 0.375000 0.000000
vt 0.375000 1.000000
vt 0.125000 0.750000
vt 0.625000 0.000000
vt 0.625000 1.000000
vt 0.875000 0.750000
vt 0.125000 0.500000
vt 0.375000 0.250000
vt 0.625000 0.250000
vt 0.875000 0.500000
vt 0.375000 0.750000
vt 0.625000 0.750000
vt 0.375000 0.500000
vt 0.625000 0.500000
s 0
f 2/4/1 3/8/1 1/1/1
f 4/9/2 7/13/2 3/8/2
f 8/14/3 5/11/3 7/13/3
f 6/12/4 1/2/4 5/11/4
f 7/13/5 1/3/5 3/7/5
f 4/10/6 6/12/6 8/14/6
f 10/18/1 11/22/1 9/15/1
f 12/23/2 15/27/2 11/22/2
f 16/28/3 13/25/3 15/27/3
f 14/26/4 9/16/4 13/25/4
f 15/27/5 9/17/5 11/21/5
f 12/24/6 14/26/6 16/28/6
f 17/29/1 20/37/1 19/35/1
f 20/37/7 23/41/7 19/35/7
f 24/42/3 21/39/3 23/41/3
f 22/40/8 17/30/8 21/39/8
f 23/41/9 17/31/9 19/36/9
f 20/38/10 22/40/10 24/42/10
f 26/46/11 27/50/11 25/43/11
f 27/50/2 32/56/2 31/55/2
f 31/55/12 30/54/12 29/53/12
f 30/54/4 25/44/4 29/53/4
f 31/55/13 25/45/13 27/49/13
f 32/56/14 26/48/14 30/54/14
f 34/60/15 35/64/15 33/57/15
f 35/64/2 40/70/2 39/69/2
f 40/70/16 37/67/16 39/69/16
f 38/68/4 33/58/4 37/67/4
f 39/69/17 33/59/17 35/63/17
f 36/66/18 38/68/18 40/70/18
f 2/4/1 4/9/1 3/8/1
f 4/9/2 8/14/2 7/13/2
f 8/14/3 6/12/3 5/11/3
f 6/12/4 2/5/4 1/2/4
f 7/13/5 5/11/5 1/3/5
f 4/10/6 2/6/6 6/12/6
f 10/18/1 12/23/1 11/22/1
f 12/23/2 16/28/2 15/27/2
f 16/28/3 14/26/3 13/25/3
f 14/26/4 10/19/4 9/16/4
f 15/27/5 13/25/5 9/17/5
f 12/24/6 10/20/6 14/26/6
f 17/29/1 18/32/1 20/37/1
f 20/37/7 24/42/7 23/41/7
f 24/42/3 22/40/3 21/39/3
f 22/40/8 18/33/8 17/30/8
f 23/41/9 21/39/9 17/31/9
f 20/38/10 18/34/10 22/40/10
f 26/46/11 28/51/11 27/50/11
f 27/50/2 28/51/2 32/56/2
f 31/55/12 32/56/12 30/54/12
f 30/54/4 26/47/4 25/44/4
f 31/55/13 29/53/13 25/45/13
f 32/56/14 28/52/14 26/48/14
f 34/60/15 36/65/15 35/64/15
f 35/64/2 36/65/2 40/70/2
f 40/70/16 38/68/16 37/67/16
f 38/68/4 34/61/4 33/58/4
f 39/69/17 37/67/17 33/59/17
f 36/66/18 34/62/18 38/68/18
