# Blender 3.5.0
# www.blender.org
mtllib Laptop.mtl
o Laptop
v -2.294405 0.029141 -3.816345
v -2.294405 0.047969 -3.816345
v -2.295188 0.029141 -3.489116
v -2.295188 0.047969 -3.489116
v -2.790207 0.029141 -3.817532
v -2.790207 0.047969 -3.817532
v -2.790990 0.029141 -3.490303
v -2.790990 0.047969 -3.490303
v -2.295209 0.040497 -3.480370
v -2.295171 0.030066 -3.496046
v -2.294551 0.250761 -3.755039
v -2.294514 0.240330 -3.770715
v -2.791011 0.040497 -3.481557
v -2.790973 0.030066 -3.497233
v -2.790353 0.250761 -3.756227
v -2.790316 0.240330 -3.771902
vn 1.0000 -0.0000 0.0024
vn -0.0024 -0.0000 1.0000
vn -1.0000 -0.0000 -0.0024
vn 0.0024 -0.0000 -1.0000
vn -0.0000 -1.0000 -0.0000
vn -0.0000 1.0000 -0.0000
vn 0.0013 0.8325 -0.5540
vn -0.0013 -0.8325 0.5540
vn -0.0015 0.7940 0.6079
vn 0.0015 -0.7940 -0.6079
vt 0.375000 0.000000
vt 0.375000 1.000000
vt 0.125000 0.750000
vt 0.625000 0.000000
vt 0.625000 1.000000
vt 0.875000 0.750000
vt 0.125000 0.500000
vt 0.375000 0.250000
vt 0.625000 0.250000
vt 0.875000 0.500000
vt 0.375000 0.750000
vt 0.625000 0.750000
vt 0.375000 0.500000
vt 0.625000 0.500000
vt 0.375000 0.000000
vt 0.375000 1.000000
vt 0.125000 0.750000
vt 0.625000 0.000000
vt 0.625000 1.000000
vt 0.875000 0.750000
vt 0.125000 0.500000
vt 0.375000 0.250000
vt 0.625000 0.250000
vt 0.875000 0.500000
vt 0.375000 0.750000
vt 0.625000 0.750000
vt 0.375000 0.500000
vt 0.625000 0.500000
s 0
f 2/4/1 3/8/1 1/1/1
f 4/9/2 7/13/2 3/8/2
f 8/14/3 5/11/3 7/13/3
f 6/12/4 1/2/4 5/11/4
f 7/13/5 1/3/5 3/7/5
f 4/10/6 6/12/6 8/14/6
f 10/18/1 11/22/1 9/15/1
f 12/23/7 15/27/7 11/22/7
f 15/27/3 14/26/3 13/25/3
f 14/26/8 9/16/8 13/25/8
f 15/27/9 9/17/9 11/21/9
f 12/24/10 14/26/10 16/28/10
f 2/4/1 4/9/1 3/8/1
f 4/9/2 8/14/2 7/13/2
f 8/14/3 6/12/3 5/11/3
f 6/12/4 2/5/4 1/2/4
f 7/13/5 5/11/5 1/3/5
f 4/10/6 2/6/6 6/12/6
f 10/18/1 12/23/1 11/22/1
f 12/23/7 16/28/7 15/27/7
f 15/27/3 16/28/3 14/26/3
f 14/26/8 10/19/8 9/16/8
f 15/27/9 13/25/9 9/17/9
f 12/24/10 10/20/10 14/26/10
